<?xml version="1.0" encoding="UTF-8"?>
<svg version="1.1" xmlns="http://www.w3.org/2000/svg" width="512" height="512">
<path d="M0 0 C168.96 0 337.92 0 512 0 C512 168.96 512 337.92 512 512 C343.04 512 174.08 512 0 512 C0 343.04 0 174.08 0 0 Z " fill="#101219" transform="translate(0,0)"/>
<path d="M0 0 C192.74963289 0 192.74963289 0 231.75 37.25 C254.7775482 61.39342058 262.98369752 91.91744241 262.265625 124.69921875 C261.25748212 153.31595255 252.87451601 183.65802374 233 205 C232.55285645 205.48807129 232.10571289 205.97614258 231.64501953 206.47900391 C211.43193953 228.37130305 183.88424862 240.52388345 155 246 C154.05108887 246.18481934 153.10217773 246.36963867 152.12451172 246.56005859 C134.5711983 249.8956118 117.81400723 250.5026744 100 250 C99.71388851 244.37669177 99.42909105 238.75331911 99.14550781 233.12988281 C99.04886352 231.21710413 98.95186101 229.3043435 98.85449219 227.39160156 C98.7145507 224.64132286 98.5759001 221.89098164 98.4375 219.140625 C98.39375244 218.28631897 98.35000488 217.43201294 98.30493164 216.55181885 C98.26489014 215.75129089 98.22484863 214.95076294 98.18359375 214.12597656 C98.14806396 213.42426331 98.11253418 212.72255005 98.07592773 211.99957275 C98.0000378 210.00099535 98 208.00001773 98 206 C98.5762915 205.9906543 99.15258301 205.98130859 99.74633789 205.97167969 C131.09272123 205.34122891 167.68964591 200.93251093 191.203125 177.8359375 C200.53696008 167.1839654 204.6701813 153.71008695 207 140 C207.17128418 139.21109375 207.34256836 138.4221875 207.51904297 137.609375 C211.35825185 116.78020519 206.61963923 94.0534204 194.9296875 76.59375 C181.64703557 58.74014497 161.14228593 51.67691929 140 48 C110.79528648 45.07952865 81.34720065 45.43157648 52 45 C52 165.45 52 285.9 52 410 C34.84 410 17.68 410 0 410 C0 274.7 0 139.4 0 0 Z " fill="#CBFD00" transform="translate(138,53)"/>
</svg>
